<mxfile host="Electron" agent="Mozilla/5.0 (Windows NT 10.0; Win64; x64) AppleWebKit/537.36 (KHTML, like Gecko) draw.io/26.1.1 Chrome/132.0.6834.210 Electron/34.3.3 Safari/537.36" version="26.1.1">
  <diagram id="R2lEEEUBdFMjLlhIrx00" name="Page-1">
    <mxGraphModel dx="1802" dy="560" grid="1" gridSize="10" guides="1" tooltips="1" connect="1" arrows="1" fold="1" page="0" pageScale="1" pageWidth="850" pageHeight="1100" math="0" shadow="0" extFonts="Permanent Marker^https://fonts.googleapis.com/css?family=Permanent+Marker">
      <root>
        <mxCell id="0" />
        <mxCell id="1" parent="0" />
        <mxCell id="epuQN8awgd-1BI6IVImn-8" style="edgeStyle=orthogonalEdgeStyle;rounded=0;orthogonalLoop=1;jettySize=auto;html=1;entryX=0;entryY=0.5;entryDx=0;entryDy=0;endArrow=none;startFill=0;shape=link;" edge="1" parent="1" source="epuQN8awgd-1BI6IVImn-1" target="epuQN8awgd-1BI6IVImn-3">
          <mxGeometry relative="1" as="geometry" />
        </mxCell>
        <mxCell id="epuQN8awgd-1BI6IVImn-10" style="edgeStyle=orthogonalEdgeStyle;rounded=0;orthogonalLoop=1;jettySize=auto;html=1;entryX=0.5;entryY=1;entryDx=0;entryDy=0;endArrow=none;startFill=0;" edge="1" parent="1" source="epuQN8awgd-1BI6IVImn-1" target="epuQN8awgd-1BI6IVImn-5">
          <mxGeometry relative="1" as="geometry" />
        </mxCell>
        <mxCell id="epuQN8awgd-1BI6IVImn-11" style="edgeStyle=orthogonalEdgeStyle;rounded=0;orthogonalLoop=1;jettySize=auto;html=1;exitX=0.25;exitY=0;exitDx=0;exitDy=0;entryX=0.5;entryY=1;entryDx=0;entryDy=0;endArrow=none;startFill=0;" edge="1" parent="1" source="epuQN8awgd-1BI6IVImn-1" target="epuQN8awgd-1BI6IVImn-2">
          <mxGeometry relative="1" as="geometry">
            <Array as="points">
              <mxPoint x="-15" y="80" />
              <mxPoint x="-80" y="80" />
            </Array>
          </mxGeometry>
        </mxCell>
        <mxCell id="epuQN8awgd-1BI6IVImn-15" style="edgeStyle=orthogonalEdgeStyle;rounded=0;orthogonalLoop=1;jettySize=auto;html=1;exitX=0.75;exitY=0;exitDx=0;exitDy=0;entryX=0.5;entryY=1;entryDx=0;entryDy=0;endArrow=none;startFill=0;" edge="1" parent="1" source="epuQN8awgd-1BI6IVImn-1" target="epuQN8awgd-1BI6IVImn-14">
          <mxGeometry relative="1" as="geometry">
            <Array as="points">
              <mxPoint x="35" y="80" />
              <mxPoint x="100" y="80" />
            </Array>
          </mxGeometry>
        </mxCell>
        <mxCell id="epuQN8awgd-1BI6IVImn-18" style="edgeStyle=orthogonalEdgeStyle;rounded=0;orthogonalLoop=1;jettySize=auto;html=1;entryX=0.5;entryY=0;entryDx=0;entryDy=0;endArrow=none;startFill=0;shape=link;" edge="1" parent="1" source="epuQN8awgd-1BI6IVImn-1" target="epuQN8awgd-1BI6IVImn-17">
          <mxGeometry relative="1" as="geometry" />
        </mxCell>
        <mxCell id="epuQN8awgd-1BI6IVImn-105" style="edgeStyle=orthogonalEdgeStyle;rounded=0;orthogonalLoop=1;jettySize=auto;html=1;exitX=0.75;exitY=1;exitDx=0;exitDy=0;endArrow=none;startFill=0;" edge="1" parent="1" source="epuQN8awgd-1BI6IVImn-1" target="epuQN8awgd-1BI6IVImn-97">
          <mxGeometry relative="1" as="geometry" />
        </mxCell>
        <mxCell id="epuQN8awgd-1BI6IVImn-1" value="&lt;font style=&quot;font-size: 14px;&quot;&gt;&lt;b&gt;TAssistant&lt;/b&gt;&lt;/font&gt;" style="rounded=1;arcSize=10;whiteSpace=wrap;html=1;align=center;fillColor=#67AB9F;" vertex="1" parent="1">
          <mxGeometry x="-40" y="120" width="100" height="40" as="geometry" />
        </mxCell>
        <mxCell id="epuQN8awgd-1BI6IVImn-2" value="&lt;b&gt;ID&lt;/b&gt;" style="ellipse;whiteSpace=wrap;html=1;align=center;fillColor=#B9E0A5;" vertex="1" parent="1">
          <mxGeometry x="-120" y="21" width="80" height="40" as="geometry" />
        </mxCell>
        <mxCell id="epuQN8awgd-1BI6IVImn-9" style="edgeStyle=orthogonalEdgeStyle;rounded=0;orthogonalLoop=1;jettySize=auto;html=1;entryX=0;entryY=0.5;entryDx=0;entryDy=0;endArrow=none;startFill=0;shape=link;" edge="1" parent="1" source="epuQN8awgd-1BI6IVImn-3" target="epuQN8awgd-1BI6IVImn-4">
          <mxGeometry relative="1" as="geometry" />
        </mxCell>
        <mxCell id="epuQN8awgd-1BI6IVImn-3" value="&lt;b&gt;&lt;font style=&quot;font-size: 14px;&quot;&gt;Teach&lt;/font&gt;&lt;/b&gt;" style="shape=rhombus;perimeter=rhombusPerimeter;whiteSpace=wrap;html=1;align=center;fillColor=#FFE599;" vertex="1" parent="1">
          <mxGeometry x="200" y="110" width="120" height="60" as="geometry" />
        </mxCell>
        <mxCell id="epuQN8awgd-1BI6IVImn-81" style="edgeStyle=orthogonalEdgeStyle;rounded=0;orthogonalLoop=1;jettySize=auto;html=1;entryX=0;entryY=0.5;entryDx=0;entryDy=0;endArrow=none;startFill=0;" edge="1" parent="1" source="epuQN8awgd-1BI6IVImn-4" target="epuQN8awgd-1BI6IVImn-7">
          <mxGeometry relative="1" as="geometry" />
        </mxCell>
        <mxCell id="epuQN8awgd-1BI6IVImn-82" style="edgeStyle=orthogonalEdgeStyle;rounded=0;orthogonalLoop=1;jettySize=auto;html=1;exitX=1;exitY=0.25;exitDx=0;exitDy=0;entryX=0;entryY=0.5;entryDx=0;entryDy=0;endArrow=none;startFill=0;" edge="1" parent="1" source="epuQN8awgd-1BI6IVImn-4" target="epuQN8awgd-1BI6IVImn-6">
          <mxGeometry relative="1" as="geometry" />
        </mxCell>
        <mxCell id="epuQN8awgd-1BI6IVImn-83" style="edgeStyle=orthogonalEdgeStyle;rounded=0;orthogonalLoop=1;jettySize=auto;html=1;exitX=1;exitY=0.75;exitDx=0;exitDy=0;entryX=0;entryY=0.5;entryDx=0;entryDy=0;endArrow=none;startFill=0;" edge="1" parent="1" source="epuQN8awgd-1BI6IVImn-4" target="epuQN8awgd-1BI6IVImn-76">
          <mxGeometry relative="1" as="geometry" />
        </mxCell>
        <mxCell id="epuQN8awgd-1BI6IVImn-89" style="edgeStyle=orthogonalEdgeStyle;rounded=0;orthogonalLoop=1;jettySize=auto;html=1;entryX=0.5;entryY=0;entryDx=0;entryDy=0;endArrow=none;startFill=0;shape=link;" edge="1" parent="1" source="epuQN8awgd-1BI6IVImn-4" target="epuQN8awgd-1BI6IVImn-20">
          <mxGeometry relative="1" as="geometry" />
        </mxCell>
        <mxCell id="epuQN8awgd-1BI6IVImn-4" value="&lt;font style=&quot;font-size: 14px;&quot;&gt;&lt;b&gt;Student&lt;/b&gt;&lt;/font&gt;" style="rounded=1;arcSize=10;whiteSpace=wrap;html=1;align=center;fillColor=#67AB9F;" vertex="1" parent="1">
          <mxGeometry x="460" y="120" width="100" height="40" as="geometry" />
        </mxCell>
        <mxCell id="epuQN8awgd-1BI6IVImn-5" value="&lt;b&gt;Name&lt;/b&gt;" style="ellipse;whiteSpace=wrap;html=1;align=center;fillColor=#B9E0A5;" vertex="1" parent="1">
          <mxGeometry x="-30" y="21" width="80" height="40" as="geometry" />
        </mxCell>
        <mxCell id="epuQN8awgd-1BI6IVImn-6" value="&lt;b&gt;ID&lt;/b&gt;" style="ellipse;whiteSpace=wrap;html=1;align=center;fillColor=#B9E0A5;" vertex="1" parent="1">
          <mxGeometry x="600" y="70" width="80" height="40" as="geometry" />
        </mxCell>
        <mxCell id="epuQN8awgd-1BI6IVImn-7" value="&lt;b&gt;Name&lt;/b&gt;" style="ellipse;whiteSpace=wrap;html=1;align=center;fillColor=#B9E0A5;" vertex="1" parent="1">
          <mxGeometry x="600" y="120" width="80" height="40" as="geometry" />
        </mxCell>
        <mxCell id="epuQN8awgd-1BI6IVImn-14" value="&lt;b&gt;Email&lt;/b&gt;" style="ellipse;whiteSpace=wrap;html=1;align=center;fillColor=#B9E0A5;" vertex="1" parent="1">
          <mxGeometry x="60" y="21" width="80" height="40" as="geometry" />
        </mxCell>
        <mxCell id="epuQN8awgd-1BI6IVImn-54" style="edgeStyle=orthogonalEdgeStyle;rounded=0;orthogonalLoop=1;jettySize=auto;html=1;entryX=1;entryY=0.5;entryDx=0;entryDy=0;endArrow=none;startFill=0;shape=link;" edge="1" parent="1" source="epuQN8awgd-1BI6IVImn-16" target="epuQN8awgd-1BI6IVImn-53">
          <mxGeometry relative="1" as="geometry" />
        </mxCell>
        <mxCell id="epuQN8awgd-1BI6IVImn-101" style="edgeStyle=orthogonalEdgeStyle;rounded=0;orthogonalLoop=1;jettySize=auto;html=1;exitX=0;exitY=1;exitDx=0;exitDy=0;entryX=0.5;entryY=0;entryDx=0;entryDy=0;endArrow=none;startFill=0;" edge="1" parent="1" source="epuQN8awgd-1BI6IVImn-16" target="epuQN8awgd-1BI6IVImn-29">
          <mxGeometry relative="1" as="geometry" />
        </mxCell>
        <mxCell id="epuQN8awgd-1BI6IVImn-102" style="edgeStyle=orthogonalEdgeStyle;rounded=0;orthogonalLoop=1;jettySize=auto;html=1;exitX=0.25;exitY=1;exitDx=0;exitDy=0;entryX=0.5;entryY=0;entryDx=0;entryDy=0;endArrow=none;startFill=0;" edge="1" parent="1" source="epuQN8awgd-1BI6IVImn-16" target="epuQN8awgd-1BI6IVImn-23">
          <mxGeometry relative="1" as="geometry">
            <Array as="points">
              <mxPoint x="-15" y="480" />
              <mxPoint x="-45" y="480" />
            </Array>
          </mxGeometry>
        </mxCell>
        <mxCell id="epuQN8awgd-1BI6IVImn-103" style="edgeStyle=orthogonalEdgeStyle;rounded=0;orthogonalLoop=1;jettySize=auto;html=1;exitX=0.75;exitY=1;exitDx=0;exitDy=0;entryX=0.5;entryY=0;entryDx=0;entryDy=0;endArrow=none;startFill=0;" edge="1" parent="1" source="epuQN8awgd-1BI6IVImn-16" target="epuQN8awgd-1BI6IVImn-24">
          <mxGeometry relative="1" as="geometry" />
        </mxCell>
        <mxCell id="epuQN8awgd-1BI6IVImn-16" value="&lt;font style=&quot;font-size: 14px;&quot;&gt;&lt;b&gt;Lab&lt;/b&gt;&lt;/font&gt;" style="rounded=1;arcSize=10;whiteSpace=wrap;html=1;align=center;fillColor=#67AB9F;" vertex="1" parent="1">
          <mxGeometry x="-40" y="400" width="100" height="40" as="geometry" />
        </mxCell>
        <mxCell id="epuQN8awgd-1BI6IVImn-19" style="edgeStyle=orthogonalEdgeStyle;rounded=0;orthogonalLoop=1;jettySize=auto;html=1;entryX=0.5;entryY=0;entryDx=0;entryDy=0;endArrow=none;startFill=0;shape=link;" edge="1" parent="1" source="epuQN8awgd-1BI6IVImn-17" target="epuQN8awgd-1BI6IVImn-16">
          <mxGeometry relative="1" as="geometry" />
        </mxCell>
        <mxCell id="epuQN8awgd-1BI6IVImn-17" value="&lt;b&gt;&lt;font style=&quot;font-size: 14px;&quot;&gt;Manage&lt;/font&gt;&lt;/b&gt;" style="shape=rhombus;perimeter=rhombusPerimeter;whiteSpace=wrap;html=1;align=center;fillColor=#FFE599;" vertex="1" parent="1">
          <mxGeometry x="-50" y="250" width="120" height="60" as="geometry" />
        </mxCell>
        <mxCell id="epuQN8awgd-1BI6IVImn-100" style="edgeStyle=orthogonalEdgeStyle;rounded=0;orthogonalLoop=1;jettySize=auto;html=1;endArrow=none;startFill=0;shape=link;" edge="1" parent="1" source="epuQN8awgd-1BI6IVImn-20">
          <mxGeometry relative="1" as="geometry">
            <mxPoint x="60" y="430" as="targetPoint" />
            <Array as="points">
              <mxPoint x="720" y="280" />
              <mxPoint x="720" y="520" />
              <mxPoint x="230" y="520" />
              <mxPoint x="230" y="430" />
              <mxPoint x="60" y="430" />
            </Array>
          </mxGeometry>
        </mxCell>
        <mxCell id="epuQN8awgd-1BI6IVImn-20" value="&lt;b&gt;&lt;font style=&quot;font-size: 14px;&quot;&gt;Contain&lt;/font&gt;&lt;/b&gt;" style="shape=rhombus;perimeter=rhombusPerimeter;whiteSpace=wrap;html=1;align=center;fillColor=#FFE599;" vertex="1" parent="1">
          <mxGeometry x="450" y="250" width="120" height="60" as="geometry" />
        </mxCell>
        <mxCell id="epuQN8awgd-1BI6IVImn-23" value="&lt;font style=&quot;font-size: 12px;&quot;&gt;&lt;b style=&quot;&quot;&gt;Name&lt;/b&gt;&lt;/font&gt;" style="ellipse;whiteSpace=wrap;html=1;align=center;fillColor=#B9E0A5;" vertex="1" parent="1">
          <mxGeometry x="-80" y="500" width="80" height="40" as="geometry" />
        </mxCell>
        <mxCell id="epuQN8awgd-1BI6IVImn-24" value="&lt;font style=&quot;font-size: 12px;&quot;&gt;&lt;b&gt;TotalDegree&lt;/b&gt;&lt;/font&gt;" style="ellipse;whiteSpace=wrap;html=1;align=center;fillColor=#B9E0A5;" vertex="1" parent="1">
          <mxGeometry x="8" y="500" width="80" height="40" as="geometry" />
        </mxCell>
        <mxCell id="epuQN8awgd-1BI6IVImn-27" value="&lt;b&gt;NumOfSessions&lt;/b&gt;" style="ellipse;whiteSpace=wrap;html=1;align=center;fillColor=#B9E0A5;" vertex="1" parent="1">
          <mxGeometry x="95" y="500" width="120" height="40" as="geometry" />
        </mxCell>
        <mxCell id="epuQN8awgd-1BI6IVImn-29" value="&lt;b&gt;&lt;font style=&quot;font-size: 12px;&quot;&gt;ID&lt;/font&gt;&lt;/b&gt;" style="ellipse;whiteSpace=wrap;html=1;align=center;fillColor=#B9E0A5;" vertex="1" parent="1">
          <mxGeometry x="-170" y="500" width="80" height="40" as="geometry" />
        </mxCell>
        <mxCell id="epuQN8awgd-1BI6IVImn-60" style="edgeStyle=orthogonalEdgeStyle;rounded=0;orthogonalLoop=1;jettySize=auto;html=1;entryX=0.5;entryY=1;entryDx=0;entryDy=0;endArrow=none;startFill=0;shape=link;" edge="1" parent="1" source="epuQN8awgd-1BI6IVImn-52" target="epuQN8awgd-1BI6IVImn-59">
          <mxGeometry relative="1" as="geometry" />
        </mxCell>
        <mxCell id="epuQN8awgd-1BI6IVImn-68" style="edgeStyle=orthogonalEdgeStyle;rounded=0;orthogonalLoop=1;jettySize=auto;html=1;exitX=0.25;exitY=1;exitDx=0;exitDy=0;entryX=0.5;entryY=0;entryDx=0;entryDy=0;endArrow=none;startFill=0;" edge="1" parent="1" source="epuQN8awgd-1BI6IVImn-52">
          <mxGeometry relative="1" as="geometry">
            <mxPoint x="-360" y="500" as="targetPoint" />
            <Array as="points">
              <mxPoint x="-335" y="480" />
              <mxPoint x="-360" y="480" />
            </Array>
          </mxGeometry>
        </mxCell>
        <mxCell id="epuQN8awgd-1BI6IVImn-69" style="edgeStyle=orthogonalEdgeStyle;rounded=0;orthogonalLoop=1;jettySize=auto;html=1;exitX=0.75;exitY=1;exitDx=0;exitDy=0;entryX=0.5;entryY=0;entryDx=0;entryDy=0;endArrow=none;startFill=0;" edge="1" parent="1" source="epuQN8awgd-1BI6IVImn-52" target="epuQN8awgd-1BI6IVImn-58">
          <mxGeometry relative="1" as="geometry">
            <Array as="points">
              <mxPoint x="-285" y="480" />
              <mxPoint x="-260" y="480" />
            </Array>
          </mxGeometry>
        </mxCell>
        <mxCell id="epuQN8awgd-1BI6IVImn-52" value="&lt;font style=&quot;font-size: 14px;&quot;&gt;&lt;b&gt;Session&lt;/b&gt;&lt;/font&gt;" style="shape=ext;margin=3;double=1;whiteSpace=wrap;html=1;align=center;fillColor=#67AB9F;" vertex="1" parent="1">
          <mxGeometry x="-360" y="400" width="100" height="40" as="geometry" />
        </mxCell>
        <mxCell id="epuQN8awgd-1BI6IVImn-55" style="edgeStyle=orthogonalEdgeStyle;rounded=0;orthogonalLoop=1;jettySize=auto;html=1;entryX=1;entryY=0.5;entryDx=0;entryDy=0;endArrow=none;startFill=0;shape=link;" edge="1" parent="1" source="epuQN8awgd-1BI6IVImn-53" target="epuQN8awgd-1BI6IVImn-52">
          <mxGeometry relative="1" as="geometry" />
        </mxCell>
        <mxCell id="epuQN8awgd-1BI6IVImn-53" value="&lt;b&gt;&lt;font style=&quot;font-size: 14px;&quot;&gt;Have&lt;/font&gt;&lt;/b&gt;" style="shape=rhombus;perimeter=rhombusPerimeter;whiteSpace=wrap;html=1;align=center;fillColor=#FFE599;" vertex="1" parent="1">
          <mxGeometry x="-180" y="390" width="70" height="60" as="geometry" />
        </mxCell>
        <mxCell id="epuQN8awgd-1BI6IVImn-58" value="&lt;b&gt;&lt;font style=&quot;font-size: 12px;&quot;&gt;Data&lt;/font&gt;&lt;/b&gt;" style="ellipse;whiteSpace=wrap;html=1;align=center;fillColor=#B9E0A5;" vertex="1" parent="1">
          <mxGeometry x="-300" y="500" width="80" height="40" as="geometry" />
        </mxCell>
        <mxCell id="epuQN8awgd-1BI6IVImn-61" style="edgeStyle=orthogonalEdgeStyle;rounded=0;orthogonalLoop=1;jettySize=auto;html=1;entryX=0.5;entryY=0;entryDx=0;entryDy=0;endArrow=none;startFill=0;" edge="1" parent="1" source="epuQN8awgd-1BI6IVImn-59" target="epuQN8awgd-1BI6IVImn-4">
          <mxGeometry relative="1" as="geometry">
            <Array as="points">
              <mxPoint x="-310" />
              <mxPoint x="510" />
            </Array>
          </mxGeometry>
        </mxCell>
        <mxCell id="epuQN8awgd-1BI6IVImn-78" style="edgeStyle=orthogonalEdgeStyle;rounded=0;orthogonalLoop=1;jettySize=auto;html=1;entryX=0;entryY=0.5;entryDx=0;entryDy=0;endArrow=none;startFill=0;" edge="1" parent="1" source="epuQN8awgd-1BI6IVImn-59" target="epuQN8awgd-1BI6IVImn-77">
          <mxGeometry relative="1" as="geometry" />
        </mxCell>
        <mxCell id="epuQN8awgd-1BI6IVImn-59" value="&lt;b&gt;&lt;font style=&quot;font-size: 14px;&quot;&gt;Attend&lt;/font&gt;&lt;/b&gt;" style="shape=rhombus;perimeter=rhombusPerimeter;whiteSpace=wrap;html=1;align=center;fillColor=#FFE599;" vertex="1" parent="1">
          <mxGeometry x="-370" y="190" width="120" height="60" as="geometry" />
        </mxCell>
        <mxCell id="epuQN8awgd-1BI6IVImn-75" value="&lt;span style=&quot;border-bottom: 1px dotted&quot;&gt;&lt;font style=&quot;font-size: 12px;&quot;&gt;&lt;b style=&quot;&quot;&gt;ID&lt;/b&gt;&lt;/font&gt;&lt;/span&gt;" style="ellipse;whiteSpace=wrap;html=1;align=center;fillColor=#B9E0A5;" vertex="1" parent="1">
          <mxGeometry x="-400" y="500" width="80" height="40" as="geometry" />
        </mxCell>
        <mxCell id="epuQN8awgd-1BI6IVImn-76" value="&lt;b&gt;Email&lt;/b&gt;" style="ellipse;whiteSpace=wrap;html=1;align=center;fillColor=#B9E0A5;" vertex="1" parent="1">
          <mxGeometry x="600" y="170" width="80" height="40" as="geometry" />
        </mxCell>
        <mxCell id="epuQN8awgd-1BI6IVImn-77" value="&lt;b&gt;&lt;font style=&quot;font-size: 12px;&quot;&gt;Degree&lt;/font&gt;&lt;/b&gt;" style="ellipse;whiteSpace=wrap;html=1;align=center;fillColor=#B9E0A5;" vertex="1" parent="1">
          <mxGeometry x="-200" y="200" width="80" height="40" as="geometry" />
        </mxCell>
        <mxCell id="epuQN8awgd-1BI6IVImn-90" style="edgeStyle=orthogonalEdgeStyle;rounded=0;orthogonalLoop=1;jettySize=auto;html=1;exitX=1;exitY=0.25;exitDx=0;exitDy=0;entryX=0;entryY=0.5;entryDx=0;entryDy=0;endArrow=none;startFill=0;" edge="1" parent="1" source="epuQN8awgd-1BI6IVImn-79" target="epuQN8awgd-1BI6IVImn-84">
          <mxGeometry relative="1" as="geometry" />
        </mxCell>
        <mxCell id="epuQN8awgd-1BI6IVImn-91" style="edgeStyle=orthogonalEdgeStyle;rounded=0;orthogonalLoop=1;jettySize=auto;html=1;entryX=0;entryY=0.5;entryDx=0;entryDy=0;endArrow=none;startFill=0;" edge="1" parent="1" source="epuQN8awgd-1BI6IVImn-79" target="epuQN8awgd-1BI6IVImn-85">
          <mxGeometry relative="1" as="geometry" />
        </mxCell>
        <mxCell id="epuQN8awgd-1BI6IVImn-92" style="edgeStyle=orthogonalEdgeStyle;rounded=0;orthogonalLoop=1;jettySize=auto;html=1;exitX=1;exitY=0.75;exitDx=0;exitDy=0;entryX=0;entryY=0.5;entryDx=0;entryDy=0;endArrow=none;startFill=0;" edge="1" parent="1" source="epuQN8awgd-1BI6IVImn-79" target="epuQN8awgd-1BI6IVImn-86">
          <mxGeometry relative="1" as="geometry" />
        </mxCell>
        <mxCell id="epuQN8awgd-1BI6IVImn-95" style="edgeStyle=orthogonalEdgeStyle;rounded=0;orthogonalLoop=1;jettySize=auto;html=1;entryX=1;entryY=0.5;entryDx=0;entryDy=0;endArrow=none;startFill=0;shape=link;" edge="1" parent="1" target="epuQN8awgd-1BI6IVImn-94">
          <mxGeometry relative="1" as="geometry">
            <mxPoint x="460" y="408" as="sourcePoint" />
          </mxGeometry>
        </mxCell>
        <mxCell id="epuQN8awgd-1BI6IVImn-79" value="&lt;font style=&quot;font-size: 14px;&quot;&gt;&lt;b&gt;Agenda&lt;/b&gt;&lt;/font&gt;" style="rounded=1;arcSize=10;whiteSpace=wrap;html=1;align=center;fillColor=#67AB9F;" vertex="1" parent="1">
          <mxGeometry x="460" y="400" width="100" height="40" as="geometry" />
        </mxCell>
        <mxCell id="epuQN8awgd-1BI6IVImn-84" value="&lt;b&gt;ID&lt;/b&gt;" style="ellipse;whiteSpace=wrap;html=1;align=center;fillColor=#B9E0A5;" vertex="1" parent="1">
          <mxGeometry x="600" y="350" width="80" height="40" as="geometry" />
        </mxCell>
        <mxCell id="epuQN8awgd-1BI6IVImn-85" value="&lt;b&gt;TopicName&lt;/b&gt;" style="ellipse;whiteSpace=wrap;html=1;align=center;fillColor=#B9E0A5;" vertex="1" parent="1">
          <mxGeometry x="600" y="400" width="80" height="40" as="geometry" />
        </mxCell>
        <mxCell id="epuQN8awgd-1BI6IVImn-86" value="&lt;b&gt;Resource&lt;/b&gt;" style="ellipse;whiteSpace=wrap;html=1;align=center;fillColor=#B9E0A5;" vertex="1" parent="1">
          <mxGeometry x="600" y="450" width="80" height="40" as="geometry" />
        </mxCell>
        <mxCell id="epuQN8awgd-1BI6IVImn-96" style="edgeStyle=orthogonalEdgeStyle;rounded=0;orthogonalLoop=1;jettySize=auto;html=1;endArrow=none;startFill=0;" edge="1" parent="1" source="epuQN8awgd-1BI6IVImn-94">
          <mxGeometry relative="1" as="geometry">
            <mxPoint x="60" y="408" as="targetPoint" />
          </mxGeometry>
        </mxCell>
        <mxCell id="epuQN8awgd-1BI6IVImn-94" value="&lt;b&gt;&lt;font style=&quot;font-size: 14px;&quot;&gt;Have&lt;/font&gt;&lt;/b&gt;" style="shape=rhombus;perimeter=rhombusPerimeter;whiteSpace=wrap;html=1;align=center;fillColor=#FFE599;" vertex="1" parent="1">
          <mxGeometry x="225" y="378" width="70" height="60" as="geometry" />
        </mxCell>
        <mxCell id="epuQN8awgd-1BI6IVImn-106" style="edgeStyle=orthogonalEdgeStyle;rounded=0;orthogonalLoop=1;jettySize=auto;html=1;entryX=0.5;entryY=0;entryDx=0;entryDy=0;endArrow=none;startFill=0;shape=link;" edge="1" parent="1" source="epuQN8awgd-1BI6IVImn-97" target="epuQN8awgd-1BI6IVImn-79">
          <mxGeometry relative="1" as="geometry">
            <Array as="points">
              <mxPoint x="260" y="340" />
              <mxPoint x="510" y="340" />
            </Array>
          </mxGeometry>
        </mxCell>
        <mxCell id="epuQN8awgd-1BI6IVImn-97" value="&lt;b&gt;&lt;font style=&quot;font-size: 14px;&quot;&gt;Create&lt;/font&gt;&lt;/b&gt;" style="shape=rhombus;perimeter=rhombusPerimeter;whiteSpace=wrap;html=1;align=center;fillColor=#FFE599;" vertex="1" parent="1">
          <mxGeometry x="200" y="240" width="120" height="60" as="geometry" />
        </mxCell>
        <mxCell id="epuQN8awgd-1BI6IVImn-104" style="edgeStyle=orthogonalEdgeStyle;rounded=0;orthogonalLoop=1;jettySize=auto;html=1;exitX=1;exitY=1;exitDx=0;exitDy=0;entryX=0.575;entryY=-0.05;entryDx=0;entryDy=0;entryPerimeter=0;endArrow=none;startFill=0;" edge="1" parent="1" source="epuQN8awgd-1BI6IVImn-16" target="epuQN8awgd-1BI6IVImn-27">
          <mxGeometry relative="1" as="geometry" />
        </mxCell>
        <mxCell id="epuQN8awgd-1BI6IVImn-107" value="&lt;font style=&quot;font-size: 14px;&quot;&gt;M&lt;/font&gt;" style="text;html=1;align=center;verticalAlign=middle;resizable=0;points=[];autosize=1;strokeColor=none;fillColor=none;" vertex="1" parent="1">
          <mxGeometry x="53" y="110" width="40" height="30" as="geometry" />
        </mxCell>
        <mxCell id="epuQN8awgd-1BI6IVImn-108" value="&lt;font style=&quot;font-size: 14px;&quot;&gt;N&lt;/font&gt;" style="text;html=1;align=center;verticalAlign=middle;resizable=0;points=[];autosize=1;strokeColor=none;fillColor=none;" vertex="1" parent="1">
          <mxGeometry x="430" y="110" width="30" height="30" as="geometry" />
        </mxCell>
        <mxCell id="epuQN8awgd-1BI6IVImn-109" value="&lt;font style=&quot;font-size: 14px;&quot;&gt;1&lt;/font&gt;" style="text;html=1;align=center;verticalAlign=middle;resizable=0;points=[];autosize=1;strokeColor=none;fillColor=none;" vertex="1" parent="1">
          <mxGeometry x="-15" y="158" width="30" height="30" as="geometry" />
        </mxCell>
        <mxCell id="epuQN8awgd-1BI6IVImn-110" value="&lt;font style=&quot;font-size: 14px;&quot;&gt;1&lt;/font&gt;" style="text;html=1;align=center;verticalAlign=middle;resizable=0;points=[];autosize=1;strokeColor=none;fillColor=none;" vertex="1" parent="1">
          <mxGeometry x="-15" y="370" width="30" height="30" as="geometry" />
        </mxCell>
        <mxCell id="epuQN8awgd-1BI6IVImn-111" value="&lt;font style=&quot;font-size: 14px;&quot;&gt;M&lt;/font&gt;" style="text;html=1;align=center;verticalAlign=middle;resizable=0;points=[];autosize=1;strokeColor=none;fillColor=none;" vertex="1" parent="1">
          <mxGeometry x="-350" y="370" width="40" height="30" as="geometry" />
        </mxCell>
        <mxCell id="epuQN8awgd-1BI6IVImn-112" value="&lt;font style=&quot;font-size: 14px;&quot;&gt;N&lt;/font&gt;" style="text;html=1;align=center;verticalAlign=middle;resizable=0;points=[];autosize=1;strokeColor=none;fillColor=none;" vertex="1" parent="1">
          <mxGeometry x="505" y="90" width="30" height="30" as="geometry" />
        </mxCell>
        <mxCell id="epuQN8awgd-1BI6IVImn-114" value="&lt;font style=&quot;font-size: 14px;&quot;&gt;1&lt;/font&gt;" style="text;html=1;align=center;verticalAlign=middle;resizable=0;points=[];autosize=1;strokeColor=none;fillColor=none;" vertex="1" parent="1">
          <mxGeometry x="-70" y="390" width="30" height="30" as="geometry" />
        </mxCell>
        <mxCell id="epuQN8awgd-1BI6IVImn-115" value="&lt;font style=&quot;font-size: 14px;&quot;&gt;M&lt;/font&gt;" style="text;html=1;align=center;verticalAlign=middle;resizable=0;points=[];autosize=1;strokeColor=none;fillColor=none;" vertex="1" parent="1">
          <mxGeometry x="-270" y="390" width="40" height="30" as="geometry" />
        </mxCell>
        <mxCell id="epuQN8awgd-1BI6IVImn-116" value="&lt;font style=&quot;font-size: 14px;&quot;&gt;M&lt;/font&gt;" style="text;html=1;align=center;verticalAlign=middle;resizable=0;points=[];autosize=1;strokeColor=none;fillColor=none;" vertex="1" parent="1">
          <mxGeometry x="505" y="160" width="40" height="30" as="geometry" />
        </mxCell>
        <mxCell id="epuQN8awgd-1BI6IVImn-117" value="&lt;font style=&quot;font-size: 14px;&quot;&gt;M&lt;/font&gt;" style="text;html=1;align=center;verticalAlign=middle;resizable=0;points=[];autosize=1;strokeColor=none;fillColor=none;" vertex="1" parent="1">
          <mxGeometry x="55" y="430" width="40" height="30" as="geometry" />
        </mxCell>
        <mxCell id="epuQN8awgd-1BI6IVImn-118" value="&lt;font style=&quot;font-size: 14px;&quot;&gt;1&lt;/font&gt;" style="text;html=1;align=center;verticalAlign=middle;resizable=0;points=[];autosize=1;strokeColor=none;fillColor=none;" vertex="1" parent="1">
          <mxGeometry x="30" y="158" width="30" height="30" as="geometry" />
        </mxCell>
        <mxCell id="epuQN8awgd-1BI6IVImn-119" value="&lt;font style=&quot;font-size: 14px;&quot;&gt;1&lt;/font&gt;" style="text;html=1;align=center;verticalAlign=middle;resizable=0;points=[];autosize=1;strokeColor=none;fillColor=none;" vertex="1" parent="1">
          <mxGeometry x="505" y="370" width="30" height="30" as="geometry" />
        </mxCell>
        <mxCell id="epuQN8awgd-1BI6IVImn-120" value="&lt;font style=&quot;font-size: 14px;&quot;&gt;1&lt;/font&gt;" style="text;html=1;align=center;verticalAlign=middle;resizable=0;points=[];autosize=1;strokeColor=none;fillColor=none;" vertex="1" parent="1">
          <mxGeometry x="430" y="378" width="30" height="30" as="geometry" />
        </mxCell>
        <mxCell id="epuQN8awgd-1BI6IVImn-121" value="&lt;font style=&quot;font-size: 14px;&quot;&gt;1&lt;/font&gt;" style="text;html=1;align=center;verticalAlign=middle;resizable=0;points=[];autosize=1;strokeColor=none;fillColor=none;" vertex="1" parent="1">
          <mxGeometry x="60" y="378" width="30" height="30" as="geometry" />
        </mxCell>
      </root>
    </mxGraphModel>
  </diagram>
</mxfile>
